# xmcd
#
# Track frame offsets: 
#        150
#        39743
#        62650
#        81157
#        98487
#        119071
#        142820
#        172239
#        189977
#        210431
#
# Disc length: 3116 seconds
#
# Revision: 4
# Processed by: cddbd v1.5.2PL0 Copyright (c) Steve Scherf et al.
# Submitted via: ExactAudioCopy v0.99pb5
#
DISCID=870c2a0a
DTITLE=Høyem,Sivert - Moon Landing
DYEAR=2009
DGENRE=Rock
TTITLE0=Belorado
TTITLE1=The Light That Falls Among the Trees
TTITLE2=Moon Landing
TTITLE3=What You Doin' with Him?
TTITLE4=Going for Gold
TTITLE5=Lost at Sea
TTITLE6=High Meseta
TTITLE7=Empty House
TTITLE8=High Society
TTITLE9=Arcadian Wives
EXTD=YEAR: 2009
EXTT0=
EXTT1=
EXTT2=
EXTT3=
EXTT4=
EXTT5=
EXTT6=
EXTT7=
EXTT8=
EXTT9=
PLAYORDER=
